<svg width="32" height="32" viewBox="0 0 32 32" fill="none" xmlns="http://www.w3.org/2000/svg">
<path d="M0 16C0 7.16344 7.16344 0 16 0C24.8366 0 32 7.16344 32 16C32 24.8366 24.8366 32 16 32C7.16344 32 0 24.8366 0 16Z" fill="#FDFFFF"/>
<path opacity="0.987" fill-rule="evenodd" clip-rule="evenodd" d="M15.0039 7.32962C15.9102 7.22837 16.4464 7.22837 17.4202 7.32962C19.1438 7.58474 20.7417 8.38148 21.9827 9.60462C21.1441 10.3973 20.3165 11.2015 19.5002 12.0171C17.9368 10.6921 16.1918 10.3863 14.2652 11.0996C12.8518 11.7496 11.8677 12.803 11.3127 14.2596C10.4057 13.5844 9.51059 12.8935 8.62767 12.1871C8.56631 12.1548 8.49623 12.143 8.42767 12.1534C9.83017 9.44921 12.0218 7.84087 15.0027 7.32837" fill="#F44336"/>
<path opacity="0.997" fill-rule="evenodd" clip-rule="evenodd" d="M8.42519 12.1534C8.49602 12.1425 8.5631 12.1538 8.62644 12.1871C9.50935 12.8935 10.4045 13.5844 11.3114 14.2596C11.1687 14.8272 11.0788 15.4067 11.0427 15.9909C11.0735 16.5559 11.1631 17.1105 11.3114 17.6546L8.49269 19.8984C7.26519 17.3334 7.24269 14.7517 8.42519 12.1534Z" fill="#FFC107"/>
<path opacity="0.999" fill-rule="evenodd" clip-rule="evenodd" d="M21.8489 22.6159C20.9712 21.8418 20.0524 21.1158 19.0964 20.4409C20.0548 19.7642 20.6364 18.8359 20.8414 17.6559H16.1452V14.3946C18.8535 14.3721 21.5606 14.395 24.2664 14.4634C24.7798 17.2509 24.1868 19.7642 22.4877 22.0034C22.2856 22.2181 22.0716 22.4226 21.8489 22.6159Z" fill="#448AFF"/>
<path opacity="0.993" fill-rule="evenodd" clip-rule="evenodd" d="M11.3114 17.6559C12.3364 20.2034 14.2156 21.3925 16.9489 21.2234C17.7162 21.1346 18.4519 20.8665 19.0964 20.4409C20.0531 21.1175 20.9706 21.8425 21.8489 22.6159C20.4572 23.8664 18.6828 24.6085 16.8152 24.7209C16.3909 24.7548 15.9645 24.7548 15.5402 24.7209C12.3585 24.3459 10.0093 22.7384 8.49268 19.8984L11.3114 17.6559Z" fill="#43A047"/>
</svg>
